<?xml version="1.0" encoding="utf-8"?>
<svg xmlns="http://www.w3.org/2000/svg" viewBox="0 0 32 32" xmlns:bx="https://boxy-svg.com">
  <defs>
    <bx:guide x="19.249" y="1.022" angle="90"/>
    <bx:guide x="1.063" y="19.086" angle="0"/>
    <bx:guide x="30.937" y="19.413" angle="0"/>
    <bx:guide x="24.725" y="30.937" angle="90"/>
  </defs>
  <ellipse style="fill-rule: nonzero; stroke: rgb(0, 0, 0); fill: rgb(62, 137, 184); paint-order: stroke; stroke-width: 0px;" cy="16" rx="15.978" ry="16" cx="16"/>
  <path style="text-indent: 0px; text-align: start; line-height: normal; text-transform: none; fill: rgb(255, 255, 255); transform-origin: 17.116px 14.882px;" d="M 26.487 4.908 L 26.094 4.884 C 26.094 4.884 21.506 4.54 17.858 8.186 L 14.14 11.908 L 13.396 11.163 L 12.649 10.418 L 11.906 11.163 L 11.162 11.908 L 8.187 8.93 L 15.628 1.489 L 14.14 0 L 8.93 5.21 L 8.187 4.465 L 0 12.651 L 1.487 14.14 L 2.233 14.882 L 3.396 13.721 L 5.302 17.767 L 2.976 20.094 L 4.464 21.583 L 6.254 19.792 L 6.719 20.816 L 5.209 22.325 L 6.697 23.814 L 7.674 22.838 L 7.977 23.511 L 8.139 23.86 L 8.489 24.023 L 9.164 24.325 L 8.187 25.302 L 9.674 26.791 L 11.185 25.28 L 12.208 25.745 L 10.418 27.536 L 11.906 29.024 L 14.233 26.698 L 18.278 28.607 L 17.116 29.767 L 17.858 30.512 L 18.604 31.255 L 19.348 32 L 27.534 23.814 L 26.79 23.071 L 32 17.86 L 30.511 16.372 L 23.068 23.814 L 20.092 20.837 L 20.838 20.094 L 21.582 19.35 L 20.838 18.607 L 20.092 17.86 L 23.814 14.14 C 27.461 10.492 27.114 5.906 27.114 5.906 L 27.093 5.511 L 26.814 5.233 L 26.767 5.186 L 26.487 4.908 Z M 24.907 7.092 C 24.857 8.224 24.597 10.382 22.326 12.651 L 18.604 16.372 L 17.858 15.628 L 20.838 12.651 L 19.348 11.163 L 16.372 14.14 L 15.628 13.394 L 19.348 9.675 C 21.621 7.402 23.778 7.143 24.907 7.092 Z M 12.649 13.394 L 18.604 19.35 L 15.628 22.325 L 17.116 23.814 L 18.604 22.325 L 21.582 25.302 L 19.862 27.023 L 9.719 22.279 L 4.977 12.139 L 6.697 10.418 L 9.674 13.394 L 8.187 14.882 L 9.674 16.372 L 12.649 13.394 Z M 12.649 14.882 C 11.419 16.117 11.419 18.114 12.649 19.35 C 13.883 20.582 15.882 20.582 17.116 19.35 L 15.628 17.86 C 15.216 18.272 14.55 18.272 14.14 17.86 C 13.728 17.451 13.728 16.785 14.14 16.372 L 12.649 14.882 Z"/>
</svg>