<svg xmlns="http://www.w3.org/2000/svg" width="589.002" height="50.306" viewBox="0 0 552.196 47.147"><path fill="#040404" d="m3.831 46.273-1.785-.285.01-22.023.008-22.023 6.178 6.143a5858.743 5858.743 0 0 1 15.857 15.86l9.679 9.717V2.326h5.553V24.21c0 12.036-.22 21.885-.488 21.885-.269 0-7.57-6.998-16.225-15.55L6.88 14.995 6.843 30.5c-.02 8.528-.305 15.629-.632 15.781-.328.152-1.398.149-2.38-.008zm69.125-.652C68.186 43.983 63.537 39.756 61 34.75c-1.875-3.703-2.226-5.363-2.226-10.539s.35-6.835 2.226-10.538C65.044 5.69 72.303 1.558 82.284 1.558c9.934 0 18.739 5.956 21.741 14.708 1.682 4.901 1.282 14.402-.767 18.207-2.55 4.735-7.492 9.168-12.07 10.826-5.122 1.855-13.343 2-18.232.322zm15.048-4.196c4.317-1.16 9.64-6.16 11.163-10.486C104.893 14.672 88.94.646 73.392 8.277c-11.259 5.527-13.455 20.593-4.25 29.154 4.91 4.567 11.522 5.967 18.862 3.994zm65.76 4.848c-.982-.157-1.785-.369-1.785-.471 0-.148 5.664-20.746 11.163-40.598.705-2.547 2.323-4.057 2.323-2.169 0 .391 3.089 7.472 6.864 15.735l6.865 15.025 5.873-12.856c3.23-7.07 6.428-14.151 7.105-15.735.677-1.583 1.47-2.88 1.763-2.88.433 0 12.068 40.93 12.313 43.317.04.384-1 .712-2.309.73l-2.38.032-3.993-13.939c-2.197-7.666-4.185-14.123-4.418-14.349-.233-.226-3.42 6.147-7.08 14.162-3.66 8.014-6.88 14.316-7.154 14.003-.274-.313-3.26-6.616-6.634-14.007-3.374-7.391-6.411-13.713-6.748-14.049-.338-.336-1.59 2.947-2.782 7.295-3.22 11.74-6.021 20.502-6.647 20.786-.304.139-1.356.124-2.338-.033zm69.764-.011c-1.006-.157-1.72-.55-1.586-.872 9.148-21.997 18.481-42.98 18.911-42.52.314.335 1.49 2.855 2.613 5.6 1.124 2.745 4.05 9.656 6.501 15.358 6.548 15.225 9.106 21.46 9.106 22.191 0 .358-1.106.432-2.458.165-2.347-.465-2.763-1.186-9.242-16.041-3.731-8.555-6.863-15.463-6.96-15.35-.467.54-13.071 29.96-13.071 30.509 0 .882-1.652 1.299-3.814.962zm53.592.001-2.181-.27V24.159c0-12.008.28-21.833.621-21.833.342 0 7.57 7.07 16.064 15.71l15.443 15.71.214-15.71.215-15.71h4.727l-.027 22.076-.027 22.076-31.61-31.483-.033 15.504c-.019 8.528-.302 15.624-.629 15.77-.327.145-1.577.143-2.776-.006zm91.425-1.704c0-1.73.366-2.304 1.468-2.304 3.05 0 6.55-1.77 7.68-3.884 2.96-5.542.561-9.266-9.07-14.08-7.295-3.648-9.044-5.236-10.027-9.109-1.964-7.73 5.877-14.685 14.89-13.211 3.03.496 9.338 4.958 9.338 6.606 0 .383-.949 1.046-2.108 1.473-1.776.654-2.434.484-4.165-1.072-2.799-2.515-5.818-3.077-9.194-1.712-3.447 1.394-4.85 4.359-3.526 7.452.645 1.506 2.57 2.943 6.58 4.912 7.457 3.66 10.325 5.845 11.905 9.068 1.715 3.498 1.652 8.71-.146 12.033-1.686 3.119-7.1 6.131-11.016 6.131-2.37 0-2.609-.211-2.609-2.304zm75.509.212c.214-1.784.742-2.185 3.597-2.728 4.18-.795 6.57-3.51 6.57-7.466 0-4.033-2.309-6.472-9.405-9.937-3.335-1.628-6.876-3.805-7.868-4.836-4.214-4.38-3.793-10.99.957-15.026 4.972-4.225 13.58-3.86 18.045.768 2.751 2.85 2.782 3.484.228 4.61-1.739.767-2.17.665-3.196-.754-2.5-3.455-11.155-3.575-13.03-.182-2.399 4.338-.162 7.915 6.732 10.77 8.704 3.605 12.289 7.881 12.294 14.665.004 7.173-4.896 12.083-12.148 12.171-2.836.035-3.011-.095-2.776-2.054zm34.36 1.451c-.217-.21-.396-10.174-.396-22.14V2.326h5.553v16.483l8.541-8.241c8.285-7.995 8.646-8.242 12.058-8.242h3.517l-21.722 21.111 11.495 11.147c6.323 6.13 11.496 11.314 11.496 11.52 0 .207-1.476.322-3.282.258-3.077-.11-3.87-.684-12.692-9.202l-9.41-9.086v9.01c0 4.956-.269 9.04-.596 9.075l-2.38.256c-.982.105-1.964.019-2.182-.192zm54.342-10.532c0-11.63.48-10.13-7.639-23.875-2.779-4.705-5.053-8.765-5.053-9.022 0-.257 1.171-.467 2.603-.467 2.476 0 2.833.393 7.332 8.063 2.6 4.434 4.91 8.056 5.131 8.05.222-.008 2.486-3.636 5.032-8.063 4.471-7.774 4.723-8.05 7.338-8.05 1.49 0 2.709.13 2.709.29s-2.856 5.17-6.347 11.134l-6.346 10.842v21.503h-4.76V35.69zM333.018 9.045l.228-7.103h4.76l.228 7.103.228 7.103h-5.672l.228-7.103z"/></svg>