<?xml version="1.0" encoding="UTF-8"?>
<svg height="13.31mm" viewBox="0,0,552.196,47.1467" width="155.84mm" xmlns="http://www.w3.org/2000/svg">
 <metadata/>
 <path d="m-408.649 528.963-1.78488-.28475.009-22.0232.009-22.0232 6.17784 6.14315c3.39778 3.37861 10.5335 10.5157 15.8567 15.8603l9.67889 9.71719v-31.3369h5.55298v21.8845c0 12.0363-.21952 21.8845-.48781 21.8845-.2683 0-7.56952-6.99715-16.2249-15.5494l-15.7371-15.5494-.0376 15.5043c-.0206 8.52746-.30521 15.6288-.63244 15.781-.32723.15216-1.39816.14853-2.37988-.008zm69.1249-.65185c-4.77048-1.63773-9.41867-5.86482-11.9545-10.8721-1.87549-3.70304-2.2262-5.36331-2.2262-10.5386s.35071-6.83558 2.2262-10.5386c4.04281-7.98208 11.3018-12.1137 21.2826-12.1137 9.93411 0 18.7387 5.95577 21.7414 14.7074 1.68203 4.9018 1.28181 14.4026-.76698 18.2072-2.54989 4.73508-7.49223 9.16829-12.0698 10.826-5.12298 1.85537-13.3439 2.00069-18.2326.32234zm15.0481-4.19584c4.31735-1.16039 9.64024-6.16056 11.1629-10.486 5.72604-16.267-10.2266-30.2936-25.7745-22.662-11.2592 5.52651-13.4555 20.5925-4.25037 29.1541 4.91007 4.56673 11.5224 5.96674 18.8623 3.99395zm65.7598 4.84762c-.98168-.1566-1.78488-.36875-1.78488-.4714 0-.14797 5.66373-20.746 11.1629-40.5974.70554-2.54685 2.3231-4.05682 2.3231-2.16876 0 .39091 3.08898 7.47155 6.86452 15.7349l6.8645 15.0244 5.87331-12.8555c3.23038-7.07036 6.42737-14.1514 7.10441-15.7349.67695-1.58375 1.47042-2.87954 1.76322-2.87954.43279 0 12.0678 40.9296 12.3127 43.3162.0395.38394-.99917.71245-2.3081.72999l-2.37985.0319-3.99383-13.9385c-2.19665-7.66635-4.18475-14.1233-4.41797-14.3491-.23331-.22583-3.41908 6.1467-7.07942 14.1614-3.66031 8.01467-6.87983 14.3162-7.15404 14.003-.27435-.31295-3.2597-6.61594-6.63396-14.0069-3.37444-7.39094-6.41137-13.7128-6.74889-14.0485-.33752-.33593-1.5893 2.94677-2.78172 7.29483-3.21978 11.7406-6.02123 20.5019-6.64662 20.7863-.30437.13849-1.35661.12367-2.33828-.033zm69.7646-.0109c-1.00685-.15696-1.72081-.54945-1.58657-.87219 9.14779-21.9967 18.4812-42.9807 18.9116-42.5196.31313.3348 1.48871 2.85479 2.61243 5.60005 1.12371 2.74516 4.04948 9.65592 6.50135 15.3576 6.54766 15.2247 9.10615 21.4597 9.10615 22.1915 0 .35798-1.10613.43193-2.45808.16428-2.34759-.46474-2.76303-1.18586-9.24207-16.0409-3.7313-8.55487-6.86352-15.4624-6.96047-15.3498-.46693.54076-13.0707 29.9594-13.0707 30.5087 0 .88239-1.65193 1.29908-3.81391.96204zm53.592.00097-2.18154-.27039v-21.8335c0-12.0083.27969-21.8335.62152-21.8335.34184 0 7.57052 7.06971 16.064 15.7104l15.4426 15.7104.21442-15.7104.21441-15.7104h4.72756l-.0273 22.0764-.0274 22.0764-31.6088-31.4833-.0339 15.5043c-.0186 8.52744-.30164 15.6233-.62888 15.7691-.32723.1456-1.57664.14303-2.77649-.006zm91.4247-1.70414c0-1.72981.36573-2.30364 1.46819-2.30364 3.04987 0 6.54932-1.77026 7.67881-3.88463 2.96034-5.54134.56191-9.26534-9.06817-14.0798-7.29632-3.64757-9.04484-5.23593-10.0284-9.10861-1.96333-7.72925 5.87697-14.6851 14.8908-13.2112 3.03004.49553 9.33804 4.9576 9.33804 6.60562 0 .38366-.94896 1.04676-2.1088 1.4736-1.77552.65345-2.43372.48403-4.16475-1.07188-2.79845-2.51538-5.81766-3.07757-9.19378-1.71204-3.44708 1.39418-4.84944 4.35839-3.52571 7.4522.64434 1.50577 2.56938 2.94258 6.58031 4.9115 7.45657 3.66015 10.3243 5.84482 11.9042 9.06765 1.71504 3.49858 1.65208 8.70967-.14538 12.0335-1.68646 3.11846-7.09974 6.13088-11.0169 6.13088-2.36938 0-2.6084-.21109-2.6084-2.30365zm75.5086.21217c.21415-1.78431.74256-2.18497 3.59768-2.72804 4.18041-.79511 6.56932-3.51051 6.56932-7.4664 0-4.03265-2.30824-6.47113-9.40468-9.93617-3.33547-1.62857-6.87584-3.80496-7.86805-4.83601-4.21373-4.38-3.79259-10.9898.95746-15.0267 4.97138-4.22518 13.5798-3.85881 18.045.7678 2.75054 2.85014 2.78182 3.48406.22766 4.61059-1.73867.76679-2.16924.66517-3.19653-.75452-2.49962-3.45439-11.1542-3.575-13.0303-.18149-2.39806 4.33742-.16134 7.91533 6.73257 10.7702 8.704 3.60435 12.289 7.88082 12.2937 14.6651.0048 7.17259-4.89542 12.0825-12.1474 12.1708-2.8358.0346-3.01162-.0955-2.77649-2.05458zm34.3609 1.45126c-.21797-.21068-.39632-10.1739-.39632-22.1399v-21.7564h5.55302v16.4834l8.54074-8.24171c8.28453-7.99435 8.64636-8.24171 12.0578-8.24171h3.51672l-21.722 21.1114 11.4957 11.1462c6.32276 6.13057 11.4961 11.3149 11.4961 11.521.0002.20605-1.47672.32192-3.28206.25748-3.07769-.10986-3.86956-.68389-12.6928-9.20248l-9.41034-9.0854v9.01059c0 4.95567-.26774 9.03927-.59496 9.07443-.32725.0352-1.39832.15022-2.38021.25563-.98188.10541-1.96356.019-2.18153-.19198zm54.3417-10.5319c0-11.6297.47961-10.131-7.63882-23.875-2.77952-4.70541-5.05368-8.76579-5.05368-9.02251 0-.25686 1.17126-.46702 2.6028-.46702 2.47597 0 2.83317.39279 7.33196 8.06272 2.60115 4.43449 4.91043 8.05691 5.13165 8.04982.22134-.007 2.48573-3.63532 5.03202-8.06273 4.47094-7.77408 4.7225-8.04981 7.33797-8.04981 1.48957 0 2.70832.1309 2.70832.29089s-2.85582 5.16981-6.34642 11.133l-6.34642 10.8421v21.503h-4.75975v-10.4044zm-199.738-26.6457.2281-7.10293h4.75971l.2281 7.10293.22808 7.10293h-5.67206l.22809-7.10293z" fill="#040404" stroke-width=".328" transform="translate(412.48 -482.69)"/>
</svg>
