<svg xmlns="http://www.w3.org/2000/svg" viewBox="0 0 32 32"><ellipse cx="16" cy="16" rx="15.978" ry="16" style="fill-rule:nonzero;stroke:#000;fill:#3e89b8;paint-order:stroke;stroke-width:0"/><path d="m26.487 4.908-.393-.024s-4.588-.344-8.236 3.302l-3.718 3.722-.744-.745-.747-.745-.743.745-.744.745L8.187 8.93l7.441-7.441L14.14 0 8.93 5.21l-.743-.745L0 12.651l1.487 1.489.746.742 1.163-1.161 1.906 4.046-2.326 2.327 1.488 1.489 1.79-1.791.465 1.024-1.51 1.509 1.488 1.489.977-.976.303.673.162.349.35.163.675.302-.977.977 1.487 1.489 1.511-1.511 1.023.465-1.79 1.791 1.488 1.488 2.327-2.326 4.045 1.909-1.162 1.16.742.745.746.743.744.745 8.186-8.186-.744-.743L32 17.86l-1.489-1.488-7.443 7.442-2.976-2.977.746-.743.744-.744-.744-.743-.746-.747 3.722-3.72c3.647-3.648 3.3-8.234 3.3-8.234l-.021-.395-.279-.278-.047-.047-.28-.278Zm-1.58 2.184c-.05 1.132-.31 3.29-2.581 5.559l-3.722 3.721-.746-.744 2.98-2.977-1.49-1.488-2.976 2.977-.744-.746 3.72-3.719c2.273-2.273 4.43-2.532 5.559-2.583Zm-12.258 6.302 5.955 5.956-2.976 2.975 1.488 1.489 1.488-1.489 2.978 2.977-1.72 1.721-10.143-4.744-4.742-10.14 1.72-1.721 2.977 2.976-1.487 1.488 1.487 1.49 2.975-2.978Zm0 1.488a3.166 3.166 0 0 0 0 4.468 3.161 3.161 0 0 0 4.467 0l-1.488-1.49a1.05 1.05 0 0 1-1.488 0 1.05 1.05 0 0 1 0-1.488l-1.491-1.49Z" style="text-indent:0;text-align:start;line-height:normal;text-transform:none;fill:#fff;transform-origin:17.116px 14.882px"/></svg>