<?xml version="1.0"?>
<svg xmlns="http://www.w3.org/2000/svg" viewBox="0 0 32 32">
    <path style="text-indent:0;text-align:start;line-height:normal;text-transform:none;block-progression:tb;-inkscape-font-specification:Sans" d="M 15.59375 3 L 15.3125 3.25 C 15.3125 3.25 12 6.0986024 12 11 L 12 16 L 11 16 L 10 16 L 10 17 L 10 18 L 6 18 L 6 8 L 4 8 L 4 15 L 3 15 L 3 26 L 5 26 L 6 26 L 6 24.4375 L 10 25.875 L 10 29 L 12 29 L 12 26.59375 L 13 26.96875 L 13 29 L 15 29 L 15 27.6875 L 15.65625 27.9375 L 16 28.0625 L 16.34375 27.9375 L 17 27.6875 L 17 29 L 19 29 L 19 26.96875 L 20 26.59375 L 20 29 L 22 29 L 22 25.875 L 26 24.4375 L 26 26 L 27 26 L 28 26 L 29 26 L 29 15 L 28 15 L 28 8 L 26 8 L 26 18 L 22 18 L 22 17 L 22 16 L 21 16 L 20 16 L 20 11 C 20 6.0977051 16.6875 3.25 16.6875 3.25 L 16.40625 3 L 16.03125 3 L 15.96875 3 L 15.59375 3 z M 16 5.53125 C 16.726118 6.3231023 18 7.9475 18 11 L 18 16 L 17 16 L 17 12 L 15 12 L 15 16 L 14 16 L 14 11 C 14 7.9468176 15.275334 6.3230728 16 5.53125 z M 12 18 L 20 18 L 20 22 L 22 22 L 22 20 L 26 20 L 26 22.3125 L 16 25.9375 L 6 22.3125 L 6 20 L 10 20 L 10 22 L 12 22 L 12 18 z M 13 19 C 13 20.657 14.343 22 16 22 C 17.657 22 19 20.657 19 19 L 17 19 C 17 19.552 16.552 20 16 20 C 15.448 20 15 19.552 15 19 L 13 19 z"/>
</svg>
